<svg id="Layer_1" data-name="Layer 1" xmlns="http://www.w3.org/2000/svg" viewBox="0 0 459.87 460.05"><defs><style>.cls-1{fill:#fff;}</style></defs><path d="M742.6,512.15c.54,126.27-103.49,231.17-231.44,230.12-125.62-1-229.51-103.56-228.42-231.79,1.08-127.07,105-228.23,229.87-228.25C639.76,282.21,743,386.16,742.6,512.15ZM512.73,738.48C638.5,738.51,739,636.56,738.94,512c-.11-126.76-104.43-227.51-229-226-122.8,1.51-224.58,102-223.41,228.68C287.65,638.25,388.36,738.64,512.73,738.48Z" transform="translate(-282.73 -282.23)"/><path class="cls-1" d="M512.73,738.48c-124.37.16-225.08-100.23-226.22-223.83C285.34,388,387.12,287.48,509.92,286c124.59-1.52,228.91,99.23,229,226C739,636.56,638.5,738.51,512.73,738.48Zm-96.56-321.2H385.93a20.71,20.71,0,0,0-8.21,1.47c-3.69,1.57-5.54,4.29-5.3,8.25a17.38,17.38,0,0,0,1.26,5.31,37.65,37.65,0,0,0,3,5.48q45.17,73.76,90.37,147.5c11.46,18.67,23,37.28,34.56,55.91a23.17,23.17,0,0,0,5.41,6.37c3.49,2.66,7.63,2.89,11.11.23A25.11,25.11,0,0,0,523,642.6c1.92-2.65,3.51-5.54,5.23-8.33q13.72-22.26,27.45-44.52a19.68,19.68,0,0,0,3.09-10.91c-.07-4.32-1.72-8.07-4-11.64Q538.49,541.58,522.24,516q-27.54-43.34-55.06-86.68c-5.17-8.19-12.33-12.15-22-12S425.84,417.27,416.17,417.28Zm156.94,0H525.82q-9.72,0-19.44.11a17.68,17.68,0,0,0-7.23,1.5c-3.81,1.74-5.55,4.9-4.55,9a30.91,30.91,0,0,0,2.63,6.65,81.26,81.26,0,0,0,4.27,6.94q17.6,27.06,35.23,54.09c9.4,14.31,18.93,28.52,28.41,42.78a18,18,0,0,0,5.85,5.92,9.32,9.32,0,0,0,10.61-.35,21.67,21.67,0,0,0,6.06-6.41c1.16-1.82,2.28-3.67,3.41-5.51Q619.89,485,648.7,438.13a31.37,31.37,0,0,0,3.78-8.26c1.59-5.9-.8-10.17-6.74-11.62a30.54,30.54,0,0,0-7.11-.93C616.79,417.25,595,417.28,573.11,417.27Z" transform="translate(-282.73 -282.23)"/><path d="M416.17,417.28c9.67,0,19.36.09,29,0s16.81,3.83,22,12Q494.6,472.68,522.24,516q16.28,25.62,32.53,51.25c2.26,3.57,3.91,7.32,4,11.64a19.68,19.68,0,0,1-3.09,10.91Q541.92,612,528.21,634.27c-1.72,2.79-3.31,5.68-5.23,8.33a25.11,25.11,0,0,1-4.89,5.19c-3.48,2.66-7.62,2.43-11.11-.23a23.17,23.17,0,0,1-5.41-6.37C490.05,622.56,478.47,604,467,585.28q-45.24-73.72-90.37-147.5a37.65,37.65,0,0,1-3-5.48,17.38,17.38,0,0,1-1.26-5.31c-.24-4,1.61-6.68,5.3-8.25a20.71,20.71,0,0,1,8.21-1.47Z" transform="translate(-282.73 -282.23)"/><path d="M573.11,417.28c21.84,0,43.68,0,65.52,0a30.54,30.54,0,0,1,7.11.93c5.94,1.45,8.33,5.72,6.74,11.62a31.37,31.37,0,0,1-3.78,8.26Q619.87,485.05,591.07,532c-1.13,1.84-2.25,3.69-3.41,5.51a21.67,21.67,0,0,1-6.06,6.41,9.32,9.32,0,0,1-10.61.35,18,18,0,0,1-5.85-5.92c-9.48-14.26-19-28.47-28.41-42.78q-17.7-27-35.23-54.09a81.26,81.26,0,0,1-4.27-6.94,30.91,30.91,0,0,1-2.63-6.65c-1-4.08.74-7.24,4.55-9a17.68,17.68,0,0,1,7.23-1.5q9.72-.11,19.44-.11Z" transform="translate(-282.73 -282.23)"/></svg>